<!-- Generator: Adobe Illustrator 24.3.0, SVG Export Plug-In  -->
<svg version="1.1" xmlns="http://www.w3.org/2000/svg" xmlns:xlink="http://www.w3.org/1999/xlink" x="0px" y="0px"
	 width="179.87px" height="99.13px" viewBox="0 0 179.87 99.13" style="overflow:visible;enable-background:new 0 0 179.87 99.13;"
	 xml:space="preserve">
<style type="text/css">
	.st0{fill:#FFFFFF;}
</style>
<defs>
</defs>
<path class="st0" d="M13.84,0.85c-0.2-0.2-0.46-0.34-0.74-0.39c-1.22-0.21-3.01-0.34-5.07,0.08C6.6,0.83,3.49,1.47,1.6,3.9
	c-2.03,2.61-2.09,6.56-0.42,10.16c0.07,0.16,0.18,0.3,0.3,0.42c28.25,28.15,56.5,56.3,84.75,84.45c0.24,0.23,5.73,0.29,6.03,0
	c28.99-28.51,57.98-56.44,86.98-84.95c0.2-0.2,0.34-0.45,0.4-0.73c0.25-1.27,0.51-3.62-0.4-6.29c-0.49-1.42-1.66-5.02-5.2-6.42
	c-2.33-0.93-4.54-0.45-5.63-0.11c-0.21,0.07-0.41,0.18-0.57,0.34C142.67,24.98,117.5,49.2,92.33,73.42
	c-1.94-0.01-3.11-0.02-5.05-0.03C62.8,49.2,38.32,25.02,13.84,0.85z"/>
</svg>
